<svg width="144" height="144" viewBox="0 0 144 144" fill="none" xmlns="http://www.w3.org/2000/svg">
<g clip-path="url(#clip0_555_2360)">
<rect width="124" height="124" transform="translate(10 10)" fill="white"/>
<g filter="url(#filter0_f_555_2360)">
<ellipse cx="83.0447" cy="124.027" rx="43.8514" ry="2.97297" fill="#D4D4D4"/>
</g>
<g filter="url(#filter1_ii_555_2360)">
<rect x="17.01" y="39.0267" width="90.6225" height="90.6225" rx="20.1946" transform="rotate(-14.0672 17.01 39.0267)" fill="#3CCB7F"/>
<g filter="url(#filter2_i_555_2360)">
<path d="M86.3233 74.1357C85.8429 73.4647 84.789 73.7288 84.6819 74.5471L84.1227 78.8211C84.09 79.0709 83.9552 79.296 83.7503 79.4426L80.2453 81.9514C79.5742 82.4318 79.8383 83.4858 80.6566 83.5928L84.9306 84.152C85.1804 84.1847 85.4055 84.3196 85.5521 84.5244L88.0609 88.0295C88.5413 88.7006 89.5953 88.4364 89.7023 87.6181L90.2615 83.3442C90.2942 83.0943 90.4291 82.8692 90.6339 82.7226L94.139 80.2138C94.8101 79.7334 94.5459 78.6795 93.7276 78.5724L89.4537 78.0132C89.2038 77.9805 88.9787 77.8457 88.8321 77.6408L86.3233 74.1357Z" fill="white"/>
<path d="M67.0981 52.4997C68.106 52.2471 69.1278 52.8594 69.3804 53.8672L70.3869 57.883C70.4204 58.0169 70.5561 58.0982 70.69 58.0647C73.3865 57.3888 75.5563 56.8429 77.3328 56.5968C79.144 56.3459 80.7675 56.3694 82.3303 56.9985C83.246 57.3671 84.0994 57.8784 84.8563 58.512C86.1481 59.5935 86.9345 61.014 87.5675 62.7294C88.1884 64.412 88.7302 66.5828 89.4061 69.2793L89.5275 69.7641C89.6942 70.4292 89.853 71.0623 90.0014 71.6653C90.0078 71.6914 89.9918 71.6262 89.9919 71.6268C90.0822 71.9998 89.5879 72.2272 89.3633 71.9161C89.363 71.9156 89.3998 71.967 89.385 71.9464C88.5543 70.7858 87.3887 70.1722 86.1878 70.0263C85.9635 69.9991 85.8513 69.9854 85.78 69.9364C85.7546 69.919 85.7369 69.9034 85.7165 69.8804C85.6589 69.8157 85.6342 69.7175 85.5849 69.5211C84.9768 67.0996 84.5274 65.3602 84.0379 64.0333C83.5164 62.6199 83.0232 61.8859 82.4405 61.398C81.9863 61.0179 81.4743 60.7111 80.9249 60.4899C80.2199 60.2061 79.34 60.1174 77.8477 60.3241C76.3202 60.5358 74.382 61.0185 71.6047 61.7145L67.4701 62.7508C64.6929 63.4468 62.7562 63.9353 61.3093 64.4691C59.8959 64.9906 59.1619 65.4838 58.6741 66.0665C58.2939 66.5207 57.9871 67.0327 57.7659 67.5821C57.4822 68.2871 57.3935 69.1669 57.6002 70.6592C57.8119 72.1868 58.2945 74.125 58.9906 76.9022L59.1121 77.387C59.8081 80.1642 60.2966 82.1009 60.8304 83.5478C61.3519 84.9612 61.8451 85.6952 62.4278 86.183C62.882 86.5632 63.394 86.87 63.9434 87.0912C64.6484 87.3749 65.5283 87.4636 67.0206 87.2569C68.5481 87.0452 70.4863 86.5626 73.2635 85.8665L76.2401 85.1205C76.4363 85.0713 76.5344 85.0468 76.6185 85.067C76.6484 85.0742 76.6705 85.0824 76.6978 85.0965C76.7747 85.1362 76.8398 85.2286 76.9699 85.4136C77.6652 86.4021 78.7575 87.1372 80.1719 87.3222C80.1917 87.3249 80.1421 87.3183 80.1437 87.3186C80.5214 87.3717 80.5536 87.9107 80.1849 88.0085C80.1833 88.0089 80.2357 87.9955 80.2147 88.0009C79.6125 88.1546 78.9787 88.3133 78.3129 88.4801L74.1783 89.5164C71.4818 90.1922 69.312 90.7382 67.5355 90.9842C65.7243 91.2351 64.1008 91.2116 62.5379 90.5826C61.6223 90.2139 60.7689 89.7026 60.012 89.069C58.7202 87.9876 57.9338 86.5671 57.3008 84.8516C56.6799 83.169 56.1381 80.9983 55.4622 78.3017L55.3407 77.817C54.6649 75.1204 54.119 72.9507 53.8729 71.1742C53.622 69.363 53.6455 67.7395 54.2745 66.1766C54.6432 65.2609 55.1545 64.4076 55.7881 63.6506C56.8695 62.3589 58.29 61.5725 60.0055 60.9395C61.6881 60.3186 63.8588 59.7767 66.5554 59.1009C66.6892 59.0674 66.7706 58.9316 66.737 58.7978L65.7306 54.782C65.478 53.7741 66.0902 52.7523 67.0981 52.4997Z" fill="white"/>
<path d="M65.5888 72.2736C66.9326 71.9368 68.295 72.7531 68.6318 74.097C68.9686 75.4408 68.1523 76.8032 66.8084 77.14C65.4646 77.4768 64.1022 76.6605 63.7654 75.3166C63.4286 73.9728 64.2449 72.6104 65.5888 72.2736Z" fill="white"/>
<path d="M77.7549 69.2244C79.0988 68.8876 80.4612 69.704 80.798 71.0478C81.1348 72.3916 80.3184 73.7541 78.9746 74.0909C77.6308 74.4277 76.2683 73.6113 75.9315 72.2675C75.5947 70.9236 76.4111 69.5612 77.7549 69.2244Z" fill="white"/>
</g>
</g>
</g>
<defs>
<filter id="filter0_f_555_2360" x="25.2203" y="107.081" width="115.649" height="33.8919" filterUnits="userSpaceOnUse" color-interpolation-filters="sRGB">
<feFlood flood-opacity="0" result="BackgroundImageFix"/>
<feBlend mode="normal" in="SourceGraphic" in2="BackgroundImageFix" result="shape"/>
<feGaussianBlur stdDeviation="6.98649" result="effect1_foregroundBlur_555_2360"/>
</filter>
<filter id="filter1_ii_555_2360" x="17.0098" y="11.9446" width="109.934" height="120.934" filterUnits="userSpaceOnUse" color-interpolation-filters="sRGB">
<feFlood flood-opacity="0" result="BackgroundImageFix"/>
<feBlend mode="normal" in="SourceGraphic" in2="BackgroundImageFix" result="shape"/>
<feColorMatrix in="SourceAlpha" type="matrix" values="0 0 0 0 0 0 0 0 0 0 0 0 0 0 0 0 0 0 127 0" result="hardAlpha"/>
<feOffset dy="-7.43243"/>
<feGaussianBlur stdDeviation="2.52703"/>
<feComposite in2="hardAlpha" operator="arithmetic" k2="-1" k3="1"/>
<feColorMatrix type="matrix" values="0 0 0 0 0 0 0 0 0 0 0 0 0 0 0 0 0 0 0.06 0"/>
<feBlend mode="normal" in2="shape" result="effect1_innerShadow_555_2360"/>
<feColorMatrix in="SourceAlpha" type="matrix" values="0 0 0 0 0 0 0 0 0 0 0 0 0 0 0 0 0 0 127 0" result="hardAlpha"/>
<feOffset dy="5.94595"/>
<feGaussianBlur stdDeviation="2.97297"/>
<feComposite in2="hardAlpha" operator="arithmetic" k2="-1" k3="1"/>
<feColorMatrix type="matrix" values="0 0 0 0 1 0 0 0 0 1 0 0 0 0 1 0 0 0 0.25 0"/>
<feBlend mode="normal" in2="effect1_innerShadow_555_2360" result="effect2_innerShadow_555_2360"/>
</filter>
<filter id="filter2_i_555_2360" x="47.6322" y="46.1345" width="48.6891" height="50.1756" filterUnits="userSpaceOnUse" color-interpolation-filters="sRGB">
<feFlood flood-opacity="0" result="BackgroundImageFix"/>
<feBlend mode="normal" in="SourceGraphic" in2="BackgroundImageFix" result="shape"/>
<feColorMatrix in="SourceAlpha" type="matrix" values="0 0 0 0 0 0 0 0 0 0 0 0 0 0 0 0 0 0 127 0" result="hardAlpha"/>
<feOffset dy="-1.48649"/>
<feGaussianBlur stdDeviation="0.743243"/>
<feComposite in2="hardAlpha" operator="arithmetic" k2="-1" k3="1"/>
<feColorMatrix type="matrix" values="0 0 0 0 0 0 0 0 0 0 0 0 0 0 0 0 0 0 0.09 0"/>
<feBlend mode="normal" in2="shape" result="effect1_innerShadow_555_2360"/>
</filter>
<clipPath id="clip0_555_2360">
<rect width="124" height="124" fill="white" transform="translate(10 10)"/>
</clipPath>
</defs>
</svg>
