<svg width="128" height="122" viewBox="0 0 128 122" fill="none" xmlns="http://www.w3.org/2000/svg">
  <g id="ai-square" filter="url(#innerShadow)">
    <g clip-path="url(#squareClip)">
      <path d="M4.70685 41.9189C2.10733 31.1834 8.7028 20.3733 19.4383 17.7738L73.4017 4.70685C84.1372 2.10733 94.9473 8.7028 97.5469 19.4383L110.614 73.4017C113.213 84.1372 106.618 94.9473 95.8824 97.5469L41.9189 110.614C31.1834 113.213 20.3733 106.618 17.7738 95.8824L4.70685 41.9189Z" fill="#9D99FF"/>
      <rect y="22.4804" width="95.523" height="95.523" transform="rotate(-13.6118 0 22.4804)" fill="url(#squareGradient)"/>
      <g id="ic-code">
        <path d="M45.095 53.1288C45.6438 52.2187 46.8265 51.9253 47.7368 52.4737C48.6469 53.0225 48.9402 54.2053 48.3918 55.1155L44.8918 60.9165L50.6582 64.4765C51.5623 65.0351 51.8424 66.221 51.2841 67.1254C50.7254 68.0293 49.5395 68.3095 48.6352 67.7512L41.2501 63.1932C40.3528 62.6389 40.0683 61.4635 40.6126 60.5601L45.095 53.1288Z" fill="white"/>
        <path d="M64.4175 48.4352C64.9759 47.531 66.1619 47.2512 67.0663 47.8093L74.4514 52.3673C75.3493 52.9216 75.6338 54.0969 75.0889 55.0005L70.6066 62.4317C70.0575 63.3415 68.8749 63.6355 67.9648 63.0868C67.0551 62.538 66.7618 61.3551 67.3097 60.445L70.8068 54.6422L65.0433 51.084C64.1398 50.5255 63.8598 49.3393 64.4175 48.4352Z" fill="white"/>
        <path d="M56.3747 51.2256C56.4294 50.1645 57.3349 49.3491 58.396 49.4031C59.4577 49.4575 60.2754 50.3622 60.221 51.4238L59.5711 64.0979C59.5165 65.1589 58.6114 65.9766 57.5504 65.9228C56.4895 65.8681 55.6716 64.963 55.7254 63.9021L56.3747 51.2256Z" fill="white"/>
      </g>
    </g>
  </g>
  <g id="cursor" transform="translate(90.7 78.3) scale(0.46)">
    <path d="M66.2117 58.2201L37.1098 30.6087C36.0073 29.5644 34.3907 29.2766 32.9972 29.878C31.6004 30.4794 30.7016 31.8502 30.7048 33.3731L30.8245 75.2105C30.8277 76.7721 31.7718 78.1527 33.2235 78.7282C33.6826 78.9093 34.1579 78.9966 34.6267 78.9966C35.6484 78.9966 36.6442 78.5827 37.3781 77.8035L49.3635 65.1068C49.5026 64.9581 49.6998 64.874 49.9035 64.8708L63.6284 64.7673C65.1835 64.7544 66.5576 63.8135 67.1299 62.3651C67.7022 60.9166 67.3401 59.2903 66.2117 58.2201Z" fill="white"/>
    <path d="M62.509 59.929L36.0906 34.8653C35.25 34.07 33.8662 34.6649 33.8694 35.8224L33.9794 74.0225C33.9794 74.7338 34.8523 75.0797 35.3405 74.5624L46.6017 62.6319C47.3454 61.8463 48.3897 61.3904 49.4696 61.3839L61.9723 61.2902C62.6804 61.2837 63.0231 60.4204 62.509 59.9322V59.929Z" fill="url(#cursorGradient)"/>
  </g>
  <defs>
    <filter id="innerShadow" x="0" y="-6" width="116" height="128" filterUnits="userSpaceOnUse" color-interpolation-filters="sRGB">
      <feFlood flood-opacity="0" result="BackgroundImageFix"/>
      <feBlend mode="normal" in="SourceGraphic" in2="BackgroundImageFix" result="shape"/>
      <feColorMatrix in="SourceAlpha" type="matrix" values="0 0 0 0 0 0 0 0 0 0 0 0 0 0 0 0 0 0 127 0" result="hardAlpha"/>
      <feOffset dy="6.27621"/>
      <feGaussianBlur stdDeviation="3.13811"/>
      <feComposite in2="hardAlpha" operator="arithmetic" k2="-1" k3="1"/>
      <feColorMatrix type="matrix" values="0 0 0 0 1 0 0 0 0 1 0 0 0 0 1 0 0 0 0.25 0"/>
      <feBlend mode="normal" in2="shape" result="effect2_innerShadow"/>
    </filter>
    <linearGradient id="squareGradient" x1="47.7615" y1="22.4804" x2="47.7615" y2="118.003" gradientUnits="userSpaceOnUse">
      <stop stop-color="#7B66FF"/>
      <stop offset="1" stop-color="#9D99FF"/>
    </linearGradient>
    <linearGradient id="cursorGradient" x1="33.935" y1="34.5584" x2="39.83" y2="61.2043" gradientUnits="userSpaceOnUse">
      <stop stop-color="#673DE6"/>
      <stop offset="1" stop-color="#141618"/>
    </linearGradient>
    <clipPath id="squareClip">
      <path d="M4.70685 41.9189C2.10733 31.1834 8.7028 20.3733 19.4383 17.7738L73.4017 4.70685C84.1372 2.10733 94.9473 8.7028 97.5469 19.4383L110.614 73.4017C113.213 84.1372 106.618 94.9473 95.8824 97.5469L41.9189 110.614C31.1834 113.213 20.3733 106.618 17.7738 95.8824L4.70685 41.9189Z" fill="white"/>
    </clipPath>
  </defs>
</svg>
